<?xml version="1.0" encoding="utf-8"?>
<!-- Generator: Adobe Illustrator 19.1.0, SVG Export Plug-In . SVG Version: 6.00 Build 0)  -->
<svg version="1.1" id="Layer_1" xmlns="http://www.w3.org/2000/svg" xmlns:xlink="http://www.w3.org/1999/xlink" x="0px" y="0px"
	 viewBox="0 0 261.9 162.4" style="enable-background:new 0 0 261.9 162.4;" xml:space="preserve">
<style type="text/css">
	.st0{fill:#FFFFFF;}
</style>
<g>
	<g>
		<path class="st0" d="M141.2,2.8c-2.8,0.2-5.2-1-7.9-1.5c-0.5-0.1-1-0.1-1.5-0.2c-1.3-0.1-4.2-0.1-4.9,1.4c-1.1,2.6,4.1,3,5.5,3.2
			c2.7,0.4,8.6-0.6,10.1,2.3c0.4,0.8,0.3,3.7,0.3,5c0,3.1-0.4,8.4,2.1,10.5c1.9,1.6,4.1-0.1,4.4-2.2c0.4-4.1-1.7-7.8-1.1-12.2
			c2.5,1.8,5.3,3.5,6.3,6.4c0.9,2.6,1,6.3,4.3,6.6c3.9,0.3,3-3.4,2-5.7c-1.3-3-3.2-5.7-5.8-7.6c-2.8-2.1-6.3-3.4-8.9-5.5
			c-0.2-0.2-0.5-0.4-1-0.7c-1.4-0.4-2.8-0.7-4.2-1C140.7,2.1,140.9,2.4,141.2,2.8z"/>
		<path class="st0" d="M117.4,6.5c1.3,0.9,3.8-0.8,5.2-2.6c0.6-0.8,1.1-1.7,1.1-2.5c-2.4,0.3-4.7,0.9-7,1.5
			C116.1,4.2,116,5.6,117.4,6.5z"/>
		<path class="st0" d="M175.6,74c-0.9-0.8-2.3-0.7-3.7-0.1c-2.3,1-3.7,3.4-5.1,5.4c-2.9,4.1-5.9,7.5-10.6,9.1
			c-0.3,0.1,4.2-5.8,5.3-7.3c1.4-2,3.9-4.7,4-7.2c0.2-4.2-5.4-2.2-6.9,0.3c-2.3,4-3.9,8-5.4,10.7c-0.7,1.2-2.3,3.7-3.4,4.4
			c-3.1,1.9-7.7-0.2-10.9-0.6c-2.9-0.4-7.1-1.5-10.8-1.7c-2.6-0.2-5.9,2.2-3.1,5.2c1.3,1.4,6.3,1.8,9,1.7c3.4-0.1,8.6,0.8,11.4,1.2
			c-1.9,0.9-3,1.5-4.4,1.8c-1.9,0.4-3.6,0.5-5.5,0.5c-3.3-0.1-6.5-0.7-9.8-0.5c-1.8,0.1-7.1,0.3-6.6,3.1c3.7,0.9,7.6,1.4,11.6,1.4
			C150.4,101.2,167.3,90.2,175.6,74z"/>
		<path class="st0" d="M103.3,72.9c-5.3-1.3-9.2-3.9-13.8-6.5c0.3-1.7,2.3-5.5,2.1-13.4c0-1.3-1.4-12.7-5-9.3
			c-1.6,1.5-0.7,4.3-0.4,6.3c0.4,2.2,0.6,13.4-0.9,12.9c-0.6-0.2-1.5-6.4-1.7-7.5c-0.3-2-0.5-3.8-0.4-5.9c0-1.9-0.4-4.2-1.9-5.5
			c-0.3,2.3-0.5,4.6-0.5,6.9c0,14.6,6.2,27.7,16.1,36.8c0.1-0.6,0.1-1.4,0-2.2c-0.4-3.5-3-5.6-5-8.4c-0.7-1-2.7-3.9-3.1-5.3
			c2.4,1.6,3.8,3.3,7.5,5.4c2.1,1.2,11.2,5.5,11.9,0.1C108.6,74.7,106,73.6,103.3,72.9z"/>
		<path class="st0" d="M131.8,71.1c-0.1,0.3-3,7.5-7.1,8.5c0.7-4,4.5-8,4.4-12.3c-0.1-2.1-1.9-2.9-3.8-1.7
			c-1.6,1.1-2.6,8.7-4.1,12.6c-1.9,4.7-8.1,3.8-12.4,4.7c-1.7,0.4-9.8,2.1-9,5.5c1.1,4.5,14.1-2.3,17.9-3.1c0.4,2.8-5.7,4.9-7.6,6.2
			c-1.2,0.8-2.9,2.1-3.1,3.6c1.7,0.9,3.4,1.7,5.2,2.4c1-0.5,2.1-1.3,2.9-2c3-2.5,4.8-6,6.9-9.2c2.4-3.7,6.6-4.2,9.7-6.6
			c2.8-2.2,6.5-6,4.8-9.9C135.3,67.1,132.6,69.4,131.8,71.1z"/>
		<path class="st0" d="M172.5,22.9c0.3,2.3,0.6,5.6,0,6.3c-0.2,0.3-2.1-5.7-2.2-6.2c-0.7-2.2-1.6-6.8-4.6-6.3c-0.1,0-0.2,0-0.3,0.1
			c-2.7,4.4,1.5,8.6,3.1,12.3c2,4.6-1.5,10-2.2,14.5c-0.3,1.9,0.3,6.9,3.4,5.9c1.5-0.5,1.8-3,2-4.3c0.2-1.1,0.4-9.8,2.7-8.8
			c1.5,0.7,2,4.7,2.3,6.1c0.7,2.7,0.7,10,4.4,6.2C180.7,39.2,177.6,30.3,172.5,22.9z"/>
		<path class="st0" d="M147.3,55.6c-3.1-1.9-0.2-4.6,2.2-5.2c4-0.9,7.7,1.1,11.2,3.1c1.2,0.7,2.6,1.6,4.1,1.6c2.3-0.1,8-1.9,9.3-1.8
			c2.9,0.2,6,0.8,4.3,4.1c-0.8,1.7-7.2,0.4-9.4,2.4c-2,1.8,1.8,2.6,3.6,2.8c1.6,0.2,6.7-0.5,5.8,2.3c-0.7,2.3-4.3,2.5-6.2,2.6
			c-3,0.1-5.6-1.7-8.5-2.5c-1.7-0.5-2.2-0.2-3.8,0.5c-4.3,1.9-8.6,2.4-13.2,2.3c-2.6-0.1-8.6,0.2-8.7-3.5c-0.1-5,12-3.2,15.3-3.5
			c1.3-0.1,6.5,0.2,5.3-1.9C157.5,57,148.6,56,147.3,55.6z"/>
		<path class="st0" d="M93.3,17.6c-0.2,0.3-0.3,0.7-0.4,0.9c-0.8,2-2.5,3.7-3.8,5.3c-1.1,1.3-2.2,2.9-3.1,4.6
			c-0.6,1.2-1.2,2.5-1.7,3.8c-0.1,0.4-0.3,0.8-0.3,1.3c-0.5,2.4,0.3,6.9,3.5,4.4c2-1.6,3.2-5.1,3.9-7.5c0.6-2,1.4-3.8,2.9-5.2
			c1.6,5.5-0.9,10.4-0.3,15.6c0.4,3.4,3.4,3.3,4.9,0.8c4.8-7.7-4.5-18.2,4.4-24.8c2.5-1.9,5-3.4,7.3-5.6c0.9-0.9,3.2-3,2-4.3
			c-1.3-1.4-4.7,0.1-6,0.7c-1,0.4-4.2,3.2-6.4,5.7c-0.5,0.6-3.6,3.9-3.5,4.4c0-0.2-0.2-2.1-0.4-3C95.1,15.6,94.2,16.6,93.3,17.6z"/>
		<path class="st0" d="M120.3,18.6c-1.4,2-6.2,14.2-5.8,17.3c0.9-1.4,3.8-3.7,4.9-4.5c3.5-2.7,6.8-6.8,8.7-10.7
			c1.3-2.6,1.8-7.4,5.1-8.4c5.1-1.7,5.1,5.2,4.5,8.3c-0.7,4.3-3.4,8.3-6.5,11.2c-3.2,3.1-7.7,4.7-11.5,7.3c-3.1,2.1-3.6,6.3-3.8,9.8
			c-0.2,4.1-0.2,8.4,0.3,12.5c0.5,3.5,3.7,12.8-1.3,12.9c-6.4,0.1-6.7-6.8-7-9.1c-0.4-2.8,0.7-18.4,0.9-18.5
			c-3.7,2.3-5.8,6.3-6.8,10.8c-0.5,2.3-1.4,8.2-5,7.2c-4-1.1-2.2-7.2-1.4-9.8c1.6-4.8,4.1-9.7,7.8-13.2c1.8-1.7,4-2.2,4.3-4.9
			c0.3-2.4,0.5-4.7,0.7-7.1c0.3-4.1,1-7.8,3.3-11.3c1.9-2.8,4.3-6.8,7.8-7.8c2-0.6,4.2,0.3,3.6,2.7C123,13.6,121.1,17.4,120.3,18.6z
			"/>
		<path class="st0" d="M160.3,40.6c-2.3,2.2-5.2,4-8,4.9c-3.4,1.1-6.4,1.3-9.5,3.2c-2.7,1.6-17,17.3-20.2,12.9
			c-4.5-6.3,13.4-10.7,14-15.6c0-0.2-8,1.1-9.4,1.6c-1.3,0.5-4.2,1.6-5-0.1c-0.5-1.1-0.2-2.6,0.6-3.4c2.7-2.7,6.1-3.4,10-3.6
			c2.1-0.1,5.1,0.3,7.1-0.6c1.8-0.8,3.4-3.4,4.5-5c2.1-3.2,4.6-8.8,9.2-8.5c3.9,0.3,2,4.2,0.5,6c-2.5,3-7,6.7-9.1,9.9
			c2.5,0.6,6-1.1,7.9-2.7c2.6-2.2,4.3-5.7,7.4-7.5c4.4-2.5,5,2.2,2.9,5.2C162.3,38.6,161.3,39.6,160.3,40.6z"/>
		<path class="st0" d="M154.1,73.4c0.4,2-5.5,5.1-7.2,6.6c-1.7,1.6-2.5,6.6-5.4,6.6c-2.2,0-1-1.9-0.1-2.8c1.1-1.1,2.6-2.2,2.7-3.9
			c-1.1,0.2-2.3,1.6-3.2,2.3c-1.1,0.7-2.4,1.5-3.7,1.7c-2,0.3-1.8-1.9-0.9-2.8c2-2,6.4-1.8,7.5-3.8c0.7-1.2,1.9-7.4,4.4-6.3
			c2.2,1-2.1,4.7-1.6,6.2c1.3-0.6,2.6-1.2,3.4-2.4C150.9,73.7,153.4,70.5,154.1,73.4z"/>
	</g>
	<g>
		<g>
			<path class="st0" d="M17.9,162.4C7.3,162.4,0,154.1,0,143.3c0-10.8,7.3-19.1,17.9-19.1c7.9,0,14.3,3.7,14.3,7.3
				c0,2.2-1.4,3.6-3.2,3.6c-3.5,0-4.3-3.8-11.1-3.8c-6.5,0-9.8,5.7-9.8,12c0,6.3,3.2,12,9.8,12c4.1,0,8.8-2.3,8.8-8.2h-5.3
				c-2.1,0-3.6-1.5-3.6-3.6c0-2.2,1.7-3.5,3.6-3.5h8.8c3.3,0,4.6,1.7,4.6,5C34.8,154.9,28.3,162.4,17.9,162.4z"/>
			<path class="st0" d="M55.2,161.8H41.8c-2.3,0-4-1.6-4-3.9v-28.6c0-2.6,1.3-4.5,4.1-4.5h12.9c2.5,0,3.7,1.8,3.7,3.6
				c0,1.8-1.2,3.6-3.7,3.6h-9.2v7.6h8.5c2.5,0,3.8,1.8,3.8,3.6c0,1.8-1.3,3.6-3.8,3.6h-8.5v7.9h9.6c2.5,0,3.7,1.8,3.7,3.6
				C58.9,160,57.6,161.8,55.2,161.8z"/>
			<path class="st0" d="M89.1,162.1c-1,0-2.5-0.8-3.3-1.7l-16.5-21.7h-0.1v19.4c0,2.6-1.7,4.1-3.9,4.1c-2.2,0-3.9-1.5-3.9-4.1v-29.5
				c0-2.6,1.7-4.1,3.9-4.1c1,0,2.6,0.8,3.3,1.7l16.5,22h0.1v-19.7c0-2.6,1.7-4.1,3.9-4.1c2.2,0,3.9,1.5,3.9,4.1v29.5
				C93,160.7,91.4,162.1,89.1,162.1z"/>
			<path class="st0" d="M113.8,161.8h-13.4c-2.3,0-4-1.6-4-3.9v-28.6c0-2.6,1.3-4.5,4.1-4.5h12.9c2.5,0,3.7,1.8,3.7,3.6
				c0,1.8-1.2,3.6-3.7,3.6h-9.2v7.6h8.5c2.5,0,3.8,1.8,3.8,3.6c0,1.8-1.3,3.6-3.8,3.6h-8.5v7.9h9.6c2.5,0,3.7,1.8,3.7,3.6
				C117.5,160,116.2,161.8,113.8,161.8z"/>
		</g>
		<g>
			<path class="st0" d="M132.6,162.4c-4,0-12.6-0.9-12.6-5.8c0-2,1.4-3.7,3.5-3.7c2.4,0,5.4,2,8.7,2c3.4,0,5.3-1.9,5.3-4.5
				c0-6.1-17.4-2.4-17.4-14.5c0-7.3,6-11.8,12.9-11.8c2.9,0,10.2,1.1,10.2,5.2c0,2-1.4,3.8-3.5,3.8c-2.1,0-3.8-1.6-6.9-1.6
				c-2.2,0-4.3,1.2-4.3,3.4c0,5.4,17.4,1.9,17.4,15.3C145.9,157.8,139.7,162.4,132.6,162.4z"/>
			<path class="st0" d="M167.9,132h-5.7v26.1c0,2.6-1.7,4.1-3.9,4.1c-2.2,0-3.9-1.5-3.9-4.1V132h-5.7c-2.5,0-3.5-1.8-3.5-3.6
				c0-1.8,1.3-3.6,3.5-3.6h19.1c2.2,0,3.5,1.8,3.5,3.6C171.4,130.1,170.4,132,167.9,132z"/>
			<path class="st0" d="M196.5,162.1c-2.2,0-3.3-1.1-3.8-2.7l-1.6-4.9h-14.5l-1.6,4.8c-0.5,1.6-1.6,2.8-3.7,2.8
				c-2.1,0-3.8-1.6-3.8-3.6c0-0.8,0.3-1.5,0.4-1.7l10.5-28.3c0.9-2.4,2.9-4.3,5.6-4.3c2.8,0,4.7,1.8,5.6,4.3l10.2,28.3
				c0.3,0.8,0.4,1.6,0.4,1.9C200.1,160.7,198.5,162.1,196.5,162.1z M184,132.3h-0.1l-4.9,15.1h9.9L184,132.3z"/>
			<path class="st0" d="M217.6,162.4c-10.6,0-17.9-8.4-17.9-19.1c0-10.8,7.3-19.1,17.9-19.1c3.8,0,11.2,1.2,11.2,5.8
				c0,1.9-1.3,3.5-3.2,3.5c-2.1,0-3.6-1.8-8-1.8c-6.4,0-9.8,5.5-9.8,11.8c0,6.2,3.4,11.5,9.8,11.5c4.4,0,6.1-2.2,8.3-2.2
				c2.3,0,3.4,2.3,3.4,3.5C229.3,161.3,221.5,162.4,217.6,162.4z"/>
			<path class="st0" d="M257.8,162.1c-1.5,0-2.5-0.9-4-2.4l-13.5-14.6v13.3c0,2-1.6,3.7-3.9,3.7c-2.2,0-3.9-1.5-3.9-3.7v-30.1
				c0-2.1,1.6-3.8,3.9-3.8c2.2,0,3.9,1.5,3.9,3.8v11.2l12.8-13.6c0.6-0.6,1.6-1.5,3-1.5c2,0,3.8,1.5,3.8,3.7c0,1.4-0.8,2.4-2.5,4.2
				l-9.8,9.7l12,12.5c1.2,1.2,2.2,2.4,2.2,4C261.9,161,259.9,162.1,257.8,162.1z"/>
		</g>
	</g>
</g>
</svg>
